<svg width="24" height="25" viewBox="0 0 24 25" fill="none" xmlns="http://www.w3.org/2000/svg">
<path d="M14.43 19.7905C14.24 19.7905 14.05 19.7205 13.9 19.5705C13.61 19.2805 13.61 18.8005 13.9 18.5105L19.44 12.9705L13.9 7.43055C13.61 7.14055 13.61 6.66055 13.9 6.37055C14.19 6.08055 14.67 6.08055 14.96 6.37055L21.03 12.4405C21.32 12.7305 21.32 13.2105 21.03 13.5005L14.96 19.5705C14.81 19.7205 14.62 19.7905 14.43 19.7905Z" fill="white"/>
<path d="M20.33 13.7206H3.5C3.09 13.7206 2.75 13.3806 2.75 12.9706C2.75 12.5606 3.09 12.2206 3.5 12.2206H20.33C20.74 12.2206 21.08 12.5606 21.08 12.9706C21.08 13.3806 20.74 13.7206 20.33 13.7206Z" fill="white"/>
</svg>
