<svg width="48" height="48" viewBox="0 0 48 48" fill="none" xmlns="http://www.w3.org/2000/svg">
<circle cx="24" cy="24" r="23.5" stroke="#E19931"/>
<path d="M30.991 14H21.01C19.899 14 19 14.899 19 16.01V21.647L14.298 26.289C14.1571 26.4283 14.0608 26.6064 14.0213 26.8006C13.9818 26.9947 14.0008 27.1963 14.076 27.3796C14.1512 27.5629 14.2792 27.7197 14.4437 27.8302C14.6082 27.9407 14.8018 27.9998 15 28V33C15 33.2652 15.1054 33.5196 15.2929 33.7071C15.4804 33.8946 15.7348 34 16 34H32C32.2652 34 32.5196 33.8946 32.7071 33.7071C32.8946 33.5196 33 33.2652 33 33V16.009C33 14.899 32.102 14 30.991 14ZM22.922 27.111V32H17V26.432L19.987 23.483L22.922 26.486V27.111ZM25 21H23V19H25V21ZM29 29H27V27H29V29ZM29 25H27V23H29V25ZM29 21H27V19H29V21Z" fill="#E19931"/>
<path d="M19 27H21V29H19V27Z" fill="#E19931"/>
</svg>
