<svg width="48" height="48" viewBox="0 0 48 48" fill="none" xmlns="http://www.w3.org/2000/svg">
<circle cx="24" cy="24" r="23.5" stroke="#E19931"/>
<path d="M37 12H35V10.4005C35 9.63 34.421 9 33.715 9H27.283C26.579 9 26 9.63 26 10.4005V12H13.9705L11 18H13.0625V22H12.7285L11.0625 24L12.7285 26H13.0935V27.074C13.0935 27.3455 13.303 27.565 13.5625 27.565C14.338 27.565 14.969 28.227 14.969 29.0405C14.969 29.854 14.338 30.516 13.5625 30.516C12.787 30.516 12.156 29.854 12.156 29.0405C12.156 28.769 11.946 28.5495 11.687 28.5495C11.4275 28.5495 11.218 28.769 11.218 29.0405C11.219 30.3975 12.27 31.5 13.5625 31.5C14.8545 31.5 15.9065 30.3975 15.9065 29.041C15.9065 27.8535 15.1 26.8595 14.0315 26.632V26H14.396L16.0625 24L14.396 22H14.0625V18H26V21.5995C26 22.2635 26.4305 22.82 27 22.963V39H28.3125V36L32.6875 37.5L28.3125 39H34V22.9625C34.57 22.82 35 22.2635 35 21.5995V18H37V16.5H35.961L37 14.5275V12ZM13.3215 16.5L14.4895 14.1005L15.7525 16.5H13.3215ZM15.5325 13.5H17.609L16.571 15.4725L15.5325 13.5ZM17.3895 16.5L18.428 14.5275L19.467 16.5H17.3895ZM19.247 13.5H21.3235L20.285 15.4725L19.247 13.5ZM21.1045 16.5L22.1425 14.5275L23.1805 16.5H21.1045ZM22.9615 13.5H25.038L24 15.4725L22.9615 13.5ZM26 16.5H24.8185L25.8565 14.5275L26 14.8V16.5ZM32.6875 36L28.3125 34.5L32.6875 33V36ZM28.3125 33V30L32.6875 31.501L28.3125 33ZM32.6875 30L28.3125 28.5L32.6875 27V30ZM28.3125 27V24.001L32.6875 25.5L28.3125 27ZM32.6875 24.001L29.77 23H32.6875V24.001ZM33.4375 15.624C33.4375 16.1055 33.0995 16.5 32.6875 16.5H28.1865C27.7745 16.5 27.4375 16.1055 27.4375 15.624V11.379C27.4375 10.8945 27.7745 10.5 28.1865 10.5H32.6875C33.0995 10.5 33.4375 10.8945 33.4375 11.379V15.624ZM35.1425 15.4725L35 15.2015V13.5H36.1805L35.1425 15.4725Z" fill="#E19931"/>
</svg>
